<svg xmlns="http://www.w3.org/2000/svg" width="185" height="73" viewBox="0 0 185 73" fill="none"><path d="M38.9688 10.0312V14.625H42.3125C50.5625 14.625 56.6146 15.6979 60.4688 17.8438C64.3229 19.9688 66.25 23.3333 66.25 27.9375C66.25 32.4375 64.3438 35.8021 60.5312 38.0312C56.7188 40.2604 50.6042 41.375 42.1875 41.375H38.9688V46.625H28.9375V41.375H25.7188C17.2812 41.375 11.1562 40.2708 7.34375 38.0625C3.55208 35.8542 1.65625 32.4896 1.65625 27.9688C1.65625 23.3854 3.59375 20.0208 7.46875 17.875C11.3438 15.7083 17.3854 14.625 25.5938 14.625H28.9375V10.0312H38.9688ZM42.7188 22.625H38.9688V33.7188H42.7188C47.9688 33.7188 51.5312 33.3438 53.4062 32.5938C55.2812 31.8438 56.2188 30.3229 56.2188 28.0312C56.2188 25.7396 55.2708 24.2708 53.375 23.625C51.4792 22.9583 47.9271 22.625 42.7188 22.625ZM25.2188 22.625C19.9896 22.625 16.4271 22.9792 14.5312 23.6875C12.6354 24.375 11.6875 25.875 11.6875 28.1875C11.6875 30.4583 12.6354 31.9479 14.5312 32.6562C16.4271 33.3646 19.9896 33.7188 25.2188 33.7188H28.9375V22.625H25.2188ZM120.25 46H110.375V25C110.375 24.4792 110.385 24.0104 110.406 23.5938C110.427 23.1771 110.427 22.8021 110.406 22.4688H110.281C110.135 22.7812 109.948 23.1562 109.719 23.5938C109.51 24.0312 109.073 24.5208 108.406 25.0625L85.1562 46H73.8438V10.6562H83.7188V31.1562C83.7188 31.6562 83.7188 32.0729 83.7188 32.4062C83.7188 32.7396 83.7188 33.1458 83.7188 33.625H83.8438C84.0104 33.2917 84.1875 32.9583 84.375 32.625C84.5833 32.2708 84.9896 31.8333 85.5938 31.3125L108.938 10.6562H120.25V46ZM174.781 54.8438V46H132.094V10.6562H141.969V37.7188H167.688V10.6562H177.562V37.7188H184.219V54.8438H174.781Z" fill="black"/><path d="M0.0264814 72.478L6.9949 55.2248C7.04671 55.0937 7.17623 55 7.30576 55L155.901 55C156.039 55 156.16 55.0843 156.212 55.2248L156.972 57.0887C157.058 57.3042 156.937 57.5571 156.721 57.6039L0.40642 72.9931C0.138736 73.0493 -0.0771382 72.7496 0.0264814 72.478Z" fill="url(#paint0_linear_156_1461)"/><defs><linearGradient id="paint0_linear_156_1461" x1="1.69393e-06" y1="64" x2="22.755" y2="1.00335" gradientUnits="userSpaceOnUse"><stop stop-color="white"/><stop offset="1" stop-color="white" stop-opacity="0"/></linearGradient></defs></svg>