<svg width="35" height="35" viewBox="0 0 35 35" fill="none" xmlns="http://www.w3.org/2000/svg">
<g id="lock">
<path id="Vector" d="M27.7825 15.8304H7.75349C6.17325 15.8304 4.89221 17.1045 4.89221 18.6762V28.6361C4.89221 30.2078 6.17325 31.4818 7.75349 31.4818H27.7825C29.3627 31.4818 30.6437 30.2078 30.6437 28.6361V18.6762C30.6437 17.1045 29.3627 15.8304 27.7825 15.8304Z" stroke="white" stroke-linecap="round" stroke-linejoin="round"/>
<path id="Vector_2" d="M10.6144 15.8305V10.139C10.6144 8.25222 11.3681 6.44268 12.7097 5.1085C14.0513 3.77432 15.8708 3.02478 17.7681 3.02478C19.6653 3.02478 21.4849 3.77432 22.8265 5.1085C24.168 6.44268 24.9217 8.25222 24.9217 10.139V15.8305" stroke="white" stroke-linecap="round" stroke-linejoin="round"/>
</g>
</svg>
