<svg width="162" height="150" viewBox="0 0 162 150" fill="none" xmlns="http://www.w3.org/2000/svg">
<path fill-rule="evenodd" clip-rule="evenodd" d="M81 15.6666C45.2855 15.6666 16.3333 42.231 16.3333 74.9999C16.3333 90.5683 22.8651 104.74 33.5669 115.33C33.9709 114.103 34.5083 112.898 35.2093 111.749C37.5858 107.85 40.5837 104.245 44.1407 101.057C47.7104 97.8584 51.7379 95.1736 56.0818 93.0525C49.4658 87.2419 45.3295 79.121 45.3295 70.0555C45.3295 52.1418 61.4804 37.9166 81 37.9166C100.52 37.9166 116.67 52.1418 116.67 70.0555C116.67 79.121 112.534 87.2419 105.918 93.0526C110.262 95.1736 114.289 97.8584 117.859 101.057C121.416 104.245 124.414 107.85 126.791 111.749C127.492 112.898 128.029 114.103 128.433 115.33C139.135 104.74 145.667 90.5683 145.667 74.9999C145.667 42.231 116.714 15.6666 81 15.6666ZM112.857 126.647C113.171 125.166 113.328 123.775 113.333 122.543C113.341 120.507 112.934 119.405 112.681 118.989C111.06 116.33 109.009 113.861 106.563 111.669C99.8152 105.622 90.6233 102.194 81 102.194C71.3766 102.194 62.1847 105.622 55.4367 111.669C52.9912 113.861 50.9402 116.33 49.319 118.989C49.0654 119.405 48.659 120.507 48.6667 122.543C48.6714 123.775 48.8287 125.166 49.1426 126.647C58.5405 131.539 69.4044 134.333 81 134.333C92.5955 134.333 103.459 131.539 112.857 126.647ZM81 87.361C91.9523 87.361 100.504 79.4492 100.504 70.0555C100.504 60.6617 91.9523 52.7499 81 52.7499C70.0476 52.7499 61.4962 60.6617 61.4962 70.0555C61.4962 79.4492 70.0476 87.361 81 87.361ZM0.166626 74.9999C0.166626 34.0388 36.3569 0.833252 81 0.833252C125.643 0.833252 161.833 34.0388 161.833 74.9999C161.833 101.383 146.813 124.542 124.23 137.679C111.722 144.955 96.8849 149.167 81 149.167C65.115 149.167 50.2775 144.955 37.7704 137.679C15.1866 124.542 0.166626 101.383 0.166626 74.9999Z" fill="#059BE5"/>
</svg>
